<svg width="1024" height="1024" viewBox="0 0 48 48" fill="none" xmlns="http://www.w3.org/2000/svg">
  <!-- K vertical stem -->
  <path d="M12 8C12 6.89543 12.8954 6 14 6H16C17.1046 6 18 6.89543 18 8V40C18 41.1046 17.1046 42 16 42H14C12.8954 42 12 41.1046 12 40V8Z" fill="#0A0A0A"/>
  <!-- K upper diagonal -->
  <path d="M18 20.5858L25.5858 13C26.3668 12.219 27.6332 12.219 28.4142 13L29.8284 14.4142C30.6095 15.1953 30.6095 16.4616 29.8284 17.2426L22.2426 24.8284C21.4616 25.6095 20.1953 25.6095 19.4142 24.8284L18 23.4142V20.5858Z" fill="#0A0A0A"/>
  <!-- K lower diagonal -->
  <path d="M18 27.5858L25.5858 35.1716C26.3668 35.9526 27.6332 35.9526 28.4142 35.1716L29.8284 33.7574C30.6095 32.9763 30.6095 31.71 29.8284 30.9289L22.2426 23.3431C21.4616 22.5621 20.1953 22.5621 19.4142 23.3431L18 24.7574V27.5858Z" fill="#0A0A0A"/>
  <!-- Sound wave bars -->
  <rect x="32" y="18" width="3" height="12" rx="1.5" fill="#171717"/>
  <rect x="38" y="14" width="3" height="20" rx="1.5" fill="#171717"/>
  <rect x="44" y="20" width="3" height="8" rx="1.5" fill="#171717"/>
</svg>